<?xml version="1.0" encoding="UTF-8"?>
<svg xmlns="http://www.w3.org/2000/svg" xmlns:xlink="http://www.w3.org/1999/xlink" width="30pt" height="30.000001pt" viewBox="0 0 30 30.000001" version="1.2">
<defs>
<clipPath id="clip1">
  <path d="M 6.054688 0 L 24.199219 0 L 24.199219 21.695312 L 6.054688 21.695312 Z M 6.054688 0 "/>
</clipPath>
<clipPath id="clip2">
  <path d="M 0.484375 16.316406 L 29.515625 16.316406 L 29.515625 29.03125 L 0.484375 29.03125 Z M 0.484375 16.316406 "/>
</clipPath>
</defs>
<g id="surface1">
<g clip-path="url(#clip1)" clip-rule="nonzero">
<path style=" stroke:none;fill-rule:nonzero;fill:rgb(0%,0%,0%);fill-opacity:1;" d="M 14.992188 21.582031 C 15.027344 21.597656 15.066406 21.609375 15.105469 21.617188 C 15.277344 21.648438 15.453125 21.648438 15.628906 21.617188 C 15.664062 21.605469 15.695312 21.597656 15.730469 21.582031 L 15.859375 21.546875 C 15.921875 21.519531 15.980469 21.492188 16.035156 21.457031 C 16.132812 21.40625 16.222656 21.339844 16.304688 21.265625 L 24.128906 13.71875 C 24.253906 13.597656 24.351562 13.457031 24.421875 13.300781 C 24.488281 13.140625 24.523438 12.976562 24.523438 12.804688 C 24.523438 12.632812 24.488281 12.464844 24.421875 12.308594 C 24.351562 12.148438 24.253906 12.007812 24.128906 11.886719 C 24 11.769531 23.855469 11.679688 23.691406 11.617188 C 23.527344 11.554688 23.355469 11.523438 23.179688 11.523438 C 23.003906 11.523438 22.835938 11.554688 22.671875 11.617188 C 22.507812 11.679688 22.363281 11.769531 22.234375 11.886719 L 17.574219 16.378906 C 17.410156 16.535156 17.226562 16.570312 17.015625 16.488281 C 16.804688 16.402344 16.699219 16.25 16.699219 16.03125 L 16.699219 1.351562 C 16.703125 1.179688 16.675781 1.007812 16.609375 0.847656 C 16.542969 0.683594 16.445312 0.539062 16.320312 0.414062 C 16.195312 0.289062 16.046875 0.191406 15.878906 0.125 C 15.714844 0.0585938 15.539062 0.0234375 15.359375 0.0234375 C 15.175781 0.0234375 15.003906 0.0585938 14.835938 0.125 C 14.667969 0.191406 14.523438 0.289062 14.398438 0.414062 C 14.269531 0.539062 14.175781 0.683594 14.109375 0.847656 C 14.042969 1.007812 14.011719 1.179688 14.019531 1.351562 L 14.019531 16.03125 C 14.015625 16.25 13.914062 16.402344 13.703125 16.484375 C 13.492188 16.570312 13.304688 16.535156 13.144531 16.378906 L 8.488281 11.886719 C 8.359375 11.769531 8.214844 11.679688 8.050781 11.617188 C 7.890625 11.554688 7.71875 11.523438 7.542969 11.527344 C 7.367188 11.527344 7.199219 11.5625 7.039062 11.625 C 6.875 11.691406 6.730469 11.785156 6.609375 11.90625 C 6.484375 12.023438 6.386719 12.164062 6.320312 12.320312 C 6.25 12.476562 6.21875 12.640625 6.214844 12.808594 C 6.214844 12.976562 6.246094 13.140625 6.3125 13.300781 C 6.375 13.457031 6.46875 13.597656 6.589844 13.71875 L 14.410156 21.261719 C 14.472656 21.320312 14.542969 21.375 14.617188 21.421875 C 14.6875 21.464844 14.765625 21.503906 14.839844 21.539062 "/>
</g>
<g clip-path="url(#clip2)" clip-rule="nonzero">
<path style=" stroke:none;fill-rule:nonzero;fill:rgb(0%,0%,0%);fill-opacity:1;" d="M 6.53125 0 C 3.207031 0 0.484375 2.722656 0.484375 6.046875 L 0.484375 22.984375 C 0.484375 26.308594 3.207031 29.03125 6.53125 29.03125 L 23.46875 29.03125 C 26.792969 29.03125 29.515625 26.308594 29.515625 22.984375 L 29.515625 6.046875 C 29.515625 2.722656 26.792969 0 23.46875 0 Z M 6.53125 2.417969 L 23.46875 2.417969 C 25.484375 2.417969 27.097656 4.03125 27.097656 6.046875 L 27.097656 22.984375 C 27.097656 25.003906 25.484375 26.613281 23.46875 26.613281 L 6.53125 26.613281 C 4.515625 26.613281 2.902344 25.003906 2.902344 22.984375 L 2.902344 6.046875 C 2.902344 4.03125 4.515625 2.417969 6.53125 2.417969 Z M 6.53125 2.417969 "/>
</g>
</g>
</svg>
