<?xml version="1.0" encoding="UTF-8"?>
<svg xmlns="http://www.w3.org/2000/svg" xmlns:xlink="http://www.w3.org/1999/xlink" width="30pt" height="30.000001pt" viewBox="0 0 30 30.000001" version="1.2">
<defs>
<clipPath id="clip1">
  <path d="M 6.054688 0 L 24.199219 0 L 24.199219 21.773438 L 6.054688 21.773438 Z M 6.054688 0 "/>
</clipPath>
<clipPath id="clip2">
  <path d="M 0.484375 16.316406 L 29.515625 16.316406 L 29.515625 29.03125 L 0.484375 29.03125 Z M 0.484375 16.316406 "/>
</clipPath>
</defs>
<g id="surface1">
<g clip-path="url(#clip1)" clip-rule="nonzero">
<path style=" stroke:none;fill-rule:nonzero;fill:rgb(100%,100%,100%);fill-opacity:1;" d="M 14.863281 21.664062 C 14.898438 21.675781 14.9375 21.6875 14.972656 21.695312 C 15.144531 21.726562 15.320312 21.726562 15.492188 21.695312 C 15.523438 21.6875 15.558594 21.675781 15.589844 21.664062 L 15.71875 21.625 C 15.777344 21.601562 15.835938 21.570312 15.894531 21.535156 C 15.988281 21.484375 16.078125 21.417969 16.15625 21.34375 L 23.867188 13.769531 C 23.992188 13.648438 24.089844 13.507812 24.15625 13.347656 C 24.222656 13.1875 24.257812 13.023438 24.257812 12.851562 C 24.257812 12.679688 24.222656 12.511719 24.15625 12.351562 C 24.089844 12.195312 23.992188 12.054688 23.867188 11.929688 C 23.742188 11.8125 23.597656 11.722656 23.4375 11.660156 C 23.277344 11.597656 23.109375 11.566406 22.933594 11.566406 C 22.761719 11.566406 22.59375 11.597656 22.433594 11.660156 C 22.269531 11.722656 22.128906 11.8125 22 11.929688 L 17.40625 16.441406 C 17.25 16.597656 17.066406 16.632812 16.859375 16.546875 C 16.648438 16.460938 16.546875 16.308594 16.546875 16.089844 L 16.546875 1.359375 C 16.550781 1.183594 16.523438 1.011719 16.457031 0.851562 C 16.390625 0.6875 16.296875 0.542969 16.171875 0.417969 C 16.046875 0.289062 15.902344 0.195312 15.738281 0.125 C 15.574219 0.0585938 15.402344 0.0234375 15.226562 0.0234375 C 15.046875 0.0234375 14.875 0.0585938 14.710938 0.125 C 14.546875 0.195312 14.402344 0.289062 14.277344 0.417969 C 14.152344 0.542969 14.058594 0.6875 13.992188 0.851562 C 13.929688 1.011719 13.898438 1.183594 13.902344 1.359375 L 13.902344 16.089844 C 13.902344 16.308594 13.800781 16.460938 13.59375 16.546875 C 13.386719 16.628906 13.203125 16.59375 13.042969 16.441406 L 8.453125 11.929688 C 8.328125 11.8125 8.183594 11.722656 8.023438 11.660156 C 7.863281 11.597656 7.695312 11.566406 7.523438 11.566406 C 7.347656 11.570312 7.183594 11.601562 7.023438 11.667969 C 6.863281 11.734375 6.722656 11.828125 6.601562 11.949219 C 6.476562 12.070312 6.382812 12.207031 6.316406 12.363281 C 6.25 12.523438 6.214844 12.683594 6.214844 12.855469 C 6.210938 13.023438 6.242188 13.1875 6.308594 13.347656 C 6.371094 13.503906 6.464844 13.644531 6.582031 13.769531 L 14.292969 21.335938 C 14.351562 21.398438 14.417969 21.453125 14.492188 21.5 C 14.566406 21.542969 14.640625 21.582031 14.714844 21.617188 "/>
</g>
<g clip-path="url(#clip2)" clip-rule="nonzero">
<path style=" stroke:none;fill-rule:nonzero;fill:rgb(100%,100%,100%);fill-opacity:1;" d="M 6.53125 0 C 3.207031 0 0.484375 2.722656 0.484375 6.046875 L 0.484375 22.984375 C 0.484375 26.308594 3.207031 29.03125 6.53125 29.03125 L 23.46875 29.03125 C 26.792969 29.03125 29.515625 26.308594 29.515625 22.984375 L 29.515625 6.046875 C 29.515625 2.722656 26.792969 0 23.46875 0 Z M 6.53125 2.417969 L 23.46875 2.417969 C 25.484375 2.417969 27.097656 4.03125 27.097656 6.046875 L 27.097656 22.984375 C 27.097656 25.003906 25.484375 26.613281 23.46875 26.613281 L 6.53125 26.613281 C 4.515625 26.613281 2.902344 25.003906 2.902344 22.984375 L 2.902344 6.046875 C 2.902344 4.03125 4.515625 2.417969 6.53125 2.417969 Z M 6.53125 2.417969 "/>
</g>
</g>
</svg>
